<?xml version="1.0" standalone="no"?>
<!DOCTYPE svg PUBLIC "-//W3C//DTD SVG 20010904//EN"
 "http://www.w3.org/TR/2001/REC-SVG-20010904/DTD/svg10.dtd">
<svg version="1.0" xmlns="http://www.w3.org/2000/svg"
 width="2133.000000pt" height="2133.000000pt" viewBox="0 0 2133.000000 2133.000000"
 preserveAspectRatio="xMidYMid meet">
<metadata>
Created by potrace 1.11, written by Peter Selinger 2001-2013
</metadata>
<g transform="translate(0.000000,2133.000000) scale(0.100000,-0.100000)"
fill="#000000" stroke="none">
<path d="M10165 20993 c-520 -31 -815 -63 -1230 -133 -3239 -545 -6041 -2619
-7516 -5562 -396 -790 -692 -1636 -873 -2498 -72 -344 -152 -852 -132 -843 6
2 34 52 63 111 182 378 488 655 856 777 158 52 275 69 477 69 191 0 297 -14
441 -60 291 -92 541 -300 650 -540 113 -249 99 -578 -35 -849 -158 -318 -432
-511 -811 -570 -60 -10 -120 -19 -132 -21 -50 -9 -104 -396 -88 -639 25 -398
218 -783 557 -1110 191 -186 374 -311 633 -436 472 -226 899 -310 1515 -296
787 18 1383 148 1945 423 384 188 685 404 970 696 371 379 624 780 854 1352
302 748 468 1565 536 2631 21 330 35 743 35 1030 0 1070 207 2105 580 2905
376 806 941 1464 1660 1933 801 521 1671 793 2780 866 80 6 258 13 395 17
l250 7 -45 19 c-25 11 -122 48 -215 83 -974 363 -1991 574 -3054 635 -163 9
-933 11 -1066 3z"/>
<path d="M13401 19979 c-354 -40 -663 -180 -904 -409 -546 -519 -906 -1447
-1081 -2790 -86 -657 -145 -1707 -146 -2585 0 -437 -23 -775 -76 -1145 -213
-1488 -900 -2692 -2009 -3520 -740 -553 -1670 -940 -2748 -1144 -823 -156
-1854 -212 -2581 -141 -1241 123 -2254 533 -2891 1170 -278 278 -484 594 -588
903 -20 57 -38 106 -41 110 -16 16 3 -381 35 -733 173 -1899 877 -3718 2034
-5255 292 -387 570 -705 940 -1076 544 -544 1000 -919 1620 -1329 926 -613
1898 -1054 2982 -1353 82 -23 85 -18 27 53 -107 134 -228 366 -293 560 -77
233 -111 470 -111 785 0 578 143 1005 462 1385 309 368 790 660 1443 877 604
200 1323 369 2835 667 416 82 721 165 740 202 19 35 314 774 415 1039 53 140
244 656 425 1145 455 1233 444 1202 583 1565 753 1957 1304 3072 1995 4030
564 782 1215 1383 1938 1787 230 128 558 270 761 330 55 16 63 21 63 42 l0 24
-377 -6 c-730 -13 -1350 -72 -2150 -207 -726 -123 -1391 -317 -2000 -586 -162
-71 -508 -244 -638 -319 -572 -327 -1074 -803 -1389 -1317 -242 -396 -394
-794 -465 -1218 -64 -385 -74 -841 -25 -1154 53 -342 163 -589 348 -784 157
-166 319 -246 554 -273 253 -30 472 55 696 271 343 331 573 890 617 1507 24
339 -22 660 -152 1061 l-60 182 34 44 34 44 35 -96 c167 -453 240 -878 218
-1268 -25 -438 -114 -767 -311 -1155 -297 -586 -814 -1029 -1369 -1173 -217
-57 -446 -61 -613 -12 -454 134 -836 600 -1023 1248 -41 145 -88 370 -106 518
-20 161 -17 668 5 850 50 412 147 742 318 1090 269 547 623 971 1134 1356 581
439 1526 855 2529 1114 1084 280 2581 449 3992 450 138 0 277 5 310 11 52 9
417 114 436 126 10 6 -24 72 -150 293 -602 1055 -1359 1970 -2287 2765 -87 75
-172 146 -188 157 l-29 21 7 -43 c4 -23 7 -108 7 -189 -1 -440 -154 -741 -520
-1019 -353 -269 -880 -458 -1507 -541 -273 -36 -987 -92 -1001 -78 -2 1 23 24
55 49 184 150 381 365 513 562 227 340 328 676 328 1095 0 443 -136 820 -394
1089 -167 174 -371 274 -666 327 -113 20 -454 28 -579 14z"/>
<path d="M19411 15090 c-73 -26 -231 -107 -338 -174 -494 -305 -1079 -1013
-1522 -1843 -192 -359 -301 -609 -671 -1544 -705 -1777 -1075 -2730 -1648
-4249 -254 -672 -513 -1352 -602 -1583 -13 -31 -20 -60 -16 -64 19 -19 296 88
521 202 548 277 993 661 1492 1287 320 401 672 945 936 1449 104 197 96 187
140 158 l36 -25 -111 -209 c-573 -1093 -1119 -1800 -1836 -2378 -366 -296
-743 -511 -1152 -657 l-105 -38 -33 -83 c-289 -728 -735 -1635 -1116 -2269
-213 -355 -517 -796 -750 -1085 -246 -306 -606 -685 -851 -894 -344 -295 -757
-565 -1085 -711 -52 -23 -99 -47 -105 -52 -20 -21 644 4 1020 37 3397 304
6440 2292 8103 5291 692 1247 1117 2633 1246 4054 56 613 56 1303 0 1910 -101
1105 -378 2181 -824 3201 -40 90 -75 167 -79 172 -9 9 -537 117 -571 116 -14
0 -49 -9 -79 -19z"/>
<path d="M12740 4939 c-113 -27 -335 -76 -495 -110 -652 -136 -1020 -230
-1405 -358 -1095 -365 -1724 -910 -2038 -1766 -110 -300 -162 -652 -148 -995
22 -498 133 -846 363 -1130 34 -41 82 -92 108 -113 l46 -39 187 -23 c212 -27
461 -51 667 -64 l140 -9 93 39 c254 104 483 290 758 615 331 391 619 855 922
1484 186 387 292 634 527 1225 171 431 348 865 459 1123 36 85 66 158 66 163
0 15 -35 9 -250 -42z"/>
</g>
</svg>
